#define img_bluetooth_peer_16_width 15
#define img_bluetooth_peer_16_height 16
const unsigned char img_bluetooth_peer_16_bits[] = {
   0x80, 0x00, 0x80, 0x01, 0x80, 0x03, 0x8c, 0x06, 0x98, 0x0c, 0xb0, 0x06,
   0xe0, 0x03, 0xc7, 0x71, 0xc6, 0x31, 0xe0, 0x03, 0xb0, 0x06, 0x98, 0x0c,
   0x8c, 0x06, 0x80, 0x03, 0x80, 0x01, 0x80, 0x00 };
