#define img_backscreen_24_width 24
#define img_backscreen_24_height 24
const unsigned char img_backscreen_24_bits[] PROGMEM = {
   0x00, 0x00, 0x00, 0x01, 0x00, 0x00, 0x03, 0x00, 0x00, 0x07, 0x00, 0x00,
   0x0f, 0x00, 0x00, 0x1f, 0x00, 0x00, 0x3f, 0x00, 0x00, 0x7f, 0x00, 0x00,
   0xff, 0x00, 0x00, 0xff, 0x01, 0x00, 0xff, 0x03, 0x00, 0xff, 0x07, 0x00,
   0xff, 0x0f, 0x00, 0xef, 0x1f, 0x00, 0xe7, 0x3f, 0x00, 0x01, 0x60, 0x00,
   0x01, 0xe0, 0x00, 0xe3, 0xe7, 0x01, 0xe7, 0xe7, 0x03, 0xef, 0xe7, 0x07,
   0xff, 0xe7, 0x0f, 0x3f, 0xe0, 0x1f, 0x3f, 0xe0, 0x3f, 0xff, 0xff, 0x7f };
