#define img_backscreen_42_width 42
#define img_backscreen_42_height 42
const unsigned char img_backscreen_42_bits[] = {
   0x00, 0x00, 0x00, 0x00, 0x00, 0x00, 0x00, 0x00, 0x00, 0x00, 0x00, 0x00,
   0x00, 0x00, 0x00, 0x00, 0x00, 0x00, 0x00, 0x00, 0x00, 0x00, 0x00, 0x00,
   0x00, 0x00, 0x00, 0x00, 0x00, 0x00, 0x00, 0x00, 0x00, 0x00, 0x00, 0x00,
   0x00, 0x00, 0x00, 0x00, 0x00, 0x00, 0x00, 0x00, 0x00, 0x00, 0x00, 0x00,
   0x00, 0x00, 0x00, 0x00, 0x00, 0x00, 0x00, 0x00, 0x00, 0x00, 0x00, 0x00,
   0x00, 0x00, 0x00, 0x00, 0x00, 0x00, 0x00, 0x00, 0x00, 0x00, 0x00, 0x00,
   0x01, 0x00, 0x00, 0x00, 0x00, 0x00, 0x03, 0x00, 0x00, 0x00, 0x00, 0x00,
   0x07, 0x00, 0x00, 0x00, 0x00, 0x00, 0x0f, 0x00, 0x00, 0x00, 0x00, 0x00,
   0x1f, 0x00, 0x00, 0x00, 0x00, 0x00, 0x3f, 0x00, 0x00, 0x00, 0x00, 0x00,
   0x7f, 0x00, 0x00, 0x00, 0x00, 0x00, 0xff, 0x00, 0x00, 0x00, 0x00, 0x00,
   0xff, 0x03, 0x00, 0x00, 0x00, 0x00, 0xff, 0x03, 0x00, 0x00, 0x00, 0x00,
   0xff, 0x0f, 0x00, 0x00, 0x00, 0x00, 0xff, 0x1f, 0x00, 0x00, 0x00, 0x00,
   0xff, 0x3f, 0x00, 0x00, 0x00, 0x00, 0xff, 0x7f, 0x00, 0x00, 0x00, 0x00,
   0xff, 0xff, 0x00, 0x00, 0x00, 0x00, 0xdf, 0xff, 0x01, 0x00, 0x00, 0x00,
   0xcf, 0xff, 0x03, 0x00, 0x00, 0x00, 0xc7, 0xff, 0x07, 0x00, 0x00, 0x00,
   0x03, 0x00, 0x0c, 0x00, 0x00, 0x00, 0x01, 0x00, 0x1c, 0x00, 0x00, 0x00,
   0x03, 0x00, 0x3c, 0x00, 0x00, 0x00, 0xc7, 0x7f, 0x7c, 0x00, 0x00, 0x00,
   0xcf, 0x7f, 0xfc, 0x00, 0x00, 0x00, 0xff, 0x7f, 0xfc, 0x01, 0x00, 0x00,
   0xff, 0x7f, 0xfc, 0x03, 0x00, 0x00, 0xff, 0x7f, 0xfc, 0x07, 0x00, 0x00,
   0xff, 0x00, 0xfc, 0x0f, 0x00, 0x00, 0xff, 0x00, 0xfc, 0x3f, 0x00, 0x00,
   0xff, 0xff, 0xff, 0x7f, 0x00, 0x00, 0x00, 0x00, 0x00, 0x00, 0x00, 0x00 };
