#define img_log_16_width 16
#define img_log_16_height 16
const unsigned char img_log_16_bits[] = {
   0xa4, 0x06, 0xff, 0x1f, 0xa5, 0x56, 0x01, 0xf0, 0xfd, 0x73, 0x01, 0x50,
   0xfd, 0x33, 0x01, 0x28, 0xfd, 0x14, 0x01, 0x1c, 0x01, 0x1a, 0x01, 0x16,
   0x01, 0x17, 0x01, 0x13, 0x01, 0x19, 0xff, 0x0f };
