#define img_settings_16_width 16
#define img_settings_16_height 16
const unsigned char img_settings_16_bits[] = {
   0x80, 0x19, 0x80, 0x1f, 0xc0, 0x19, 0x70, 0xe0, 0x30, 0xef, 0xa0, 0x4f,
   0xa0, 0x4f, 0x10, 0xef, 0x7a, 0xe0, 0xc6, 0x18, 0x82, 0x1e, 0x83, 0x19,
   0x82, 0x00, 0x46, 0x00, 0xfe, 0x00, 0x10, 0x00 };
