#define img_usb_16_width 7
#define img_usb_16_height 16
const unsigned char img_usb_16_bits[] = {
   0x08, 0x0c, 0x1c, 0x08, 0x68, 0x6b, 0x2b, 0x2b, 0x18, 0x0a, 0x0c, 0x08,
   0x08, 0x1c, 0x1c, 0x1c };
