#define img_battery_16_width 9
#define img_battery_16_height 16
const unsigned char img_battery_16_bits[] = {
   0x7c, 0x00, 0xc7, 0x01, 0xff, 0x01, 0xff, 0x01, 0xff, 0x01, 0xff, 0x01,
   0xff, 0x01, 0xff, 0x01, 0x01, 0x01, 0xff, 0x01, 0xff, 0x01, 0xff, 0x01,
   0xff, 0x01, 0xff, 0x01, 0xff, 0x01, 0xff, 0x01 };
