#define img_mainmenu_gesture_width 120
#define img_mainmenu_gesture_height 120
const unsigned char img_mainmenu_gesture_bits[] = {
   0x00, 0x00, 0x00, 0x00, 0x00, 0x00, 0xf8, 0x01, 0x00, 0x00, 0x00, 0x00,
   0x00, 0x00, 0x00, 0x00, 0x00, 0x00, 0x00, 0x00, 0x00, 0xff, 0x0f, 0x00,
   0x00, 0x00, 0x00, 0x00, 0x00, 0x00, 0x00, 0x00, 0x00, 0x00, 0x00, 0x80,
   0xff, 0x1f, 0x00, 0x00, 0x00, 0x00, 0x00, 0x00, 0x00, 0x00, 0x00, 0x00,
   0x00, 0x00, 0xc0, 0xff, 0x3f, 0x00, 0x00, 0x00, 0x00, 0x00, 0x00, 0x00,
   0x00, 0x00, 0x00, 0x00, 0x00, 0xe0, 0xff, 0x7f, 0x00, 0x00, 0x00, 0x00,
   0x00, 0x00, 0x00, 0x00, 0x00, 0x00, 0x00, 0x00, 0xe0, 0x8f, 0x7f, 0xfe,
   0x00, 0x00, 0x00, 0x00, 0x00, 0x00, 0x00, 0x00, 0x00, 0x00, 0x00, 0xf0,
   0x03, 0xfe, 0xff, 0x07, 0x00, 0x00, 0x00, 0x00, 0x00, 0x00, 0x00, 0x00,
   0x00, 0x00, 0xf0, 0x03, 0xfc, 0xff, 0x0f, 0x00, 0x00, 0x00, 0x00, 0x00,
   0x00, 0x00, 0x00, 0x00, 0x00, 0xf0, 0x03, 0xfc, 0xff, 0x1f, 0x00, 0x00,
   0x00, 0x00, 0x00, 0x00, 0x00, 0x00, 0x00, 0x00, 0xf0, 0x01, 0xf8, 0xff,
   0x3f, 0x00, 0x00, 0x00, 0x00, 0x00, 0x00, 0x00, 0x00, 0x00, 0xf8, 0xf7,
   0x01, 0xf8, 0x83, 0x3f, 0x00, 0x00, 0x00, 0x00, 0x00, 0x00, 0x00, 0x00,
   0x00, 0xfe, 0xff, 0x01, 0xf8, 0x01, 0x3f, 0x00, 0x00, 0x00, 0x00, 0x00,
   0x00, 0x00, 0x00, 0x00, 0xfe, 0xff, 0x01, 0xf8, 0x01, 0x3f, 0x00, 0x00,
   0x00, 0x00, 0x00, 0x00, 0x00, 0x00, 0xc0, 0xff, 0xff, 0x01, 0xf8, 0x00,
   0x3e, 0x00, 0x00, 0x00, 0x00, 0x00, 0x00, 0x00, 0x00, 0xc0, 0xff, 0xff,
   0x01, 0xf8, 0x00, 0x3c, 0x00, 0x00, 0x00, 0x00, 0x00, 0x00, 0x00, 0x00,
   0xc0, 0xff, 0xff, 0x01, 0x78, 0x00, 0x3c, 0x00, 0x00, 0x00, 0x00, 0x00,
   0x00, 0x00, 0x00, 0xe0, 0x07, 0xfc, 0x01, 0x78, 0x00, 0x3c, 0x00, 0x00,
   0x00, 0x00, 0x00, 0x00, 0x00, 0x00, 0xe0, 0x07, 0xf8, 0x01, 0x78, 0x00,
   0x3c, 0x00, 0x00, 0x00, 0x00, 0x00, 0x00, 0x00, 0x00, 0xe0, 0x07, 0xf8,
   0x01, 0x78, 0x00, 0x3c, 0x00, 0x00, 0x00, 0x00, 0x00, 0x00, 0x00, 0x00,
   0xe0, 0x03, 0xf0, 0x01, 0x78, 0x00, 0x3c, 0x00, 0x00, 0x00, 0x00, 0x00,
   0x00, 0x00, 0x00, 0xe0, 0x03, 0xf0, 0x01, 0x78, 0x00, 0x3c, 0x00, 0x00,
   0x00, 0x00, 0x00, 0x00, 0x00, 0x00, 0xe0, 0x03, 0xf0, 0x01, 0x78, 0x00,
   0x3c, 0x00, 0x00, 0x00, 0x00, 0x00, 0x00, 0x00, 0xe0, 0xe7, 0x03, 0xf0,
   0x01, 0x78, 0x00, 0x3c, 0x00, 0x00, 0x00, 0x00, 0x00, 0x00, 0x00, 0xf0,
   0xef, 0x03, 0xf0, 0x01, 0x78, 0x00, 0x3c, 0x00, 0x00, 0x00, 0x00, 0x00,
   0x00, 0x00, 0xfc, 0xff, 0x03, 0xf0, 0x01, 0x78, 0x00, 0x3c, 0x00, 0x00,
   0x00, 0x00, 0x00, 0x00, 0x00, 0xff, 0xff, 0x03, 0xf0, 0x01, 0x78, 0x00,
   0x3c, 0x00, 0x00, 0x00, 0x00, 0x00, 0x00, 0x80, 0xff, 0xff, 0x03, 0xf0,
   0x01, 0x78, 0x00, 0x3c, 0x00, 0x00, 0x00, 0x00, 0x00, 0x00, 0x80, 0xff,
   0xff, 0x03, 0xf0, 0x01, 0x78, 0x00, 0x3c, 0x00, 0x00, 0x00, 0x00, 0x00,
   0x00, 0x80, 0x0f, 0xf8, 0x03, 0xf0, 0x01, 0x78, 0x00, 0x3c, 0x00, 0x00,
   0x00, 0x00, 0x00, 0x00, 0x80, 0x0f, 0xf8, 0x03, 0xf0, 0x01, 0x78, 0x00,
   0x3c, 0x00, 0x00, 0x00, 0x00, 0x00, 0x00, 0xc0, 0x0f, 0xf0, 0x03, 0xf0,
   0x01, 0x78, 0x00, 0x3c, 0x00, 0x00, 0x00, 0x00, 0x00, 0x00, 0xc0, 0x07,
   0xf0, 0x03, 0xf0, 0x01, 0x78, 0x00, 0x3c, 0x00, 0x00, 0x00, 0x00, 0x00,
   0x00, 0xc0, 0x07, 0xe0, 0x03, 0xf0, 0x01, 0x78, 0x00, 0x3c, 0x00, 0x00,
   0x00, 0x00, 0x00, 0x00, 0xc0, 0x07, 0xe0, 0x03, 0xf0, 0x01, 0x78, 0x00,
   0x3c, 0x00, 0x00, 0x00, 0x00, 0x00, 0x00, 0xc0, 0x07, 0xe0, 0x03, 0xf0,
   0x01, 0x78, 0x00, 0x3c, 0x00, 0x00, 0x00, 0x00, 0x00, 0x00, 0xc0, 0x07,
   0xe0, 0x03, 0xf0, 0x01, 0x78, 0x00, 0x3c, 0x00, 0x00, 0x00, 0x00, 0x00,
   0x00, 0xc0, 0x07, 0xe0, 0x03, 0xf0, 0x01, 0x78, 0x00, 0x3c, 0x00, 0x00,
   0x00, 0x00, 0x00, 0x00, 0xc0, 0x07, 0xe0, 0x03, 0xf0, 0x01, 0x78, 0x00,
   0x3c, 0x00, 0x00, 0x00, 0x00, 0x00, 0x00, 0xc0, 0x07, 0xe0, 0x03, 0xf0,
   0x01, 0x78, 0x00, 0x3c, 0x00, 0x00, 0x00, 0x00, 0x00, 0x00, 0xc0, 0x07,
   0xe0, 0x03, 0xf0, 0x01, 0x78, 0x00, 0x3c, 0x00, 0x00, 0x00, 0x00, 0x00,
   0x00, 0xc0, 0x07, 0xe0, 0x03, 0xf0, 0x01, 0x78, 0x00, 0x3c, 0x00, 0x00,
   0x00, 0x00, 0x00, 0x00, 0xc0, 0x07, 0xe0, 0x03, 0xf0, 0x01, 0x78, 0x00,
   0x3c, 0x00, 0x00, 0x00, 0x00, 0x00, 0x00, 0xc0, 0x07, 0xe0, 0x03, 0xf0,
   0x01, 0x78, 0x00, 0x3c, 0x00, 0x00, 0x00, 0x00, 0x00, 0x00, 0xc0, 0x07,
   0xe0, 0x03, 0xf0, 0x01, 0x78, 0x00, 0x3c, 0x00, 0x00, 0x00, 0x00, 0x00,
   0x00, 0xc0, 0x07, 0xe0, 0x03, 0xf0, 0x01, 0x78, 0x00, 0x3c, 0x00, 0x00,
   0x00, 0x00, 0x00, 0x00, 0xc0, 0x07, 0xe0, 0x03, 0xf0, 0x01, 0x78, 0x00,
   0x3c, 0x00, 0x00, 0x00, 0x00, 0x00, 0x00, 0xc0, 0x07, 0xe0, 0x03, 0xf0,
   0x01, 0x78, 0x00, 0x3c, 0x00, 0x00, 0x00, 0x00, 0x00, 0x00, 0xc0, 0x07,
   0xe0, 0x03, 0xf0, 0x01, 0x78, 0x00, 0x3c, 0x00, 0x00, 0x00, 0x00, 0x00,
   0x00, 0xc0, 0x07, 0xe0, 0x03, 0xf0, 0x01, 0x78, 0x00, 0x3c, 0x00, 0x00,
   0x00, 0x00, 0x00, 0x00, 0xc0, 0x07, 0xe0, 0x03, 0xf0, 0x01, 0x78, 0x00,
   0x3c, 0x00, 0x80, 0x01, 0x00, 0x00, 0x00, 0xc0, 0x07, 0xe0, 0x03, 0xf0,
   0x01, 0x78, 0x00, 0x3c, 0x00, 0xe0, 0x0f, 0x00, 0x00, 0x00, 0xc0, 0x07,
   0xe0, 0x03, 0xf0, 0x01, 0x78, 0x00, 0x3c, 0x00, 0xfc, 0x3f, 0x00, 0x00,
   0x00, 0xc0, 0x07, 0xe0, 0x03, 0xf0, 0x01, 0x78, 0x00, 0x3c, 0x00, 0xfe,
   0xff, 0x00, 0x00, 0x00, 0xc0, 0x07, 0xe0, 0x03, 0xf0, 0x01, 0x78, 0x00,
   0x3c, 0x80, 0xff, 0xff, 0x01, 0x00, 0x00, 0xc0, 0x07, 0xe0, 0x03, 0xf0,
   0x01, 0x78, 0x00, 0x3c, 0xc0, 0xff, 0xff, 0x01, 0x00, 0x00, 0xc0, 0x07,
   0xe0, 0x03, 0xf0, 0x01, 0x78, 0x00, 0x3c, 0xe0, 0x1f, 0xf8, 0x01, 0x00,
   0x00, 0xc0, 0x07, 0xe0, 0x03, 0xf0, 0x01, 0x78, 0x00, 0x3c, 0xf0, 0x1f,
   0xf0, 0x01, 0x00, 0x00, 0xc0, 0x07, 0xe0, 0x03, 0xf0, 0x01, 0x70, 0x00,
   0x3c, 0xf0, 0x0f, 0xf0, 0x03, 0x00, 0x00, 0xc0, 0x07, 0xe0, 0x03, 0xf0,
   0x00, 0x00, 0x00, 0x3c, 0xfe, 0x03, 0xe0, 0x03, 0x00, 0x00, 0xc0, 0x07,
   0xe0, 0x03, 0xe0, 0x00, 0x00, 0x00, 0x3c, 0xfe, 0x00, 0xe0, 0x03, 0x00,
   0x00, 0xc0, 0x07, 0xe0, 0x03, 0x00, 0x00, 0x00, 0x00, 0x3c, 0xfe, 0x00,
   0xe0, 0x03, 0x00, 0x00, 0xc0, 0x07, 0xe0, 0x03, 0x00, 0x00, 0x00, 0x00,
   0xbc, 0x3f, 0x00, 0xf0, 0x01, 0x00, 0x00, 0xc0, 0x07, 0xe0, 0x03, 0x00,
   0x00, 0x00, 0x00, 0xfc, 0x1f, 0x00, 0xf0, 0x01, 0x00, 0x00, 0xc0, 0x07,
   0xe0, 0x03, 0x00, 0x00, 0x00, 0x00, 0xfc, 0x1f, 0x00, 0xf8, 0x01, 0x00,
   0x00, 0xc0, 0x07, 0xc0, 0x01, 0x00, 0x00, 0x00, 0x00, 0xfc, 0x0f, 0x00,
   0xfe, 0x01, 0x00, 0x00, 0xc0, 0x07, 0x00, 0x00, 0x00, 0x00, 0x00, 0x00,
   0xfc, 0x07, 0x00, 0xfe, 0x00, 0x00, 0x00, 0xc0, 0x07, 0x00, 0x00, 0x00,
   0x00, 0x00, 0x00, 0xfc, 0x03, 0x00, 0x7f, 0x00, 0x00, 0x00, 0xc0, 0x07,
   0x00, 0x00, 0x00, 0x00, 0x00, 0x00, 0xfc, 0x01, 0x80, 0x3f, 0x00, 0x00,
   0x00, 0xc0, 0x07, 0x00, 0x00, 0x00, 0x00, 0x00, 0x00, 0xfc, 0x01, 0x80,
   0x3f, 0x00, 0x00, 0x00, 0xc0, 0x07, 0x00, 0x00, 0x00, 0x00, 0x00, 0x00,
   0xfc, 0x00, 0xe0, 0x0f, 0x00, 0x00, 0x00, 0xc0, 0x07, 0x00, 0x00, 0x00,
   0x00, 0x00, 0x00, 0x3c, 0x00, 0xe0, 0x07, 0x00, 0x00, 0x00, 0xc0, 0x07,
   0x00, 0x00, 0x00, 0x00, 0x00, 0x00, 0x38, 0x00, 0xf0, 0x07, 0x00, 0x00,
   0x00, 0xc0, 0x07, 0x00, 0x00, 0x00, 0x00, 0x00, 0x00, 0x38, 0x00, 0xf8,
   0x03, 0x00, 0x00, 0x00, 0xc0, 0x07, 0x00, 0x00, 0x00, 0x00, 0x00, 0x00,
   0x00, 0x00, 0xfc, 0x00, 0x00, 0x00, 0x00, 0xc0, 0x07, 0x00, 0x00, 0x00,
   0x00, 0x00, 0x00, 0x00, 0x00, 0xfe, 0x00, 0x00, 0x00, 0x00, 0xc0, 0x07,
   0x00, 0x00, 0x00, 0x00, 0x00, 0x00, 0x00, 0x00, 0xff, 0x00, 0x00, 0x00,
   0x00, 0xc0, 0x07, 0x00, 0x00, 0x00, 0x00, 0x00, 0x00, 0x00, 0x80, 0x1f,
   0x00, 0x00, 0x00, 0x00, 0xc0, 0x07, 0x00, 0x00, 0x00, 0x00, 0x00, 0x00,
   0x00, 0x80, 0x1f, 0x00, 0x00, 0x00, 0x00, 0xc0, 0x07, 0x00, 0x00, 0x00,
   0x00, 0x00, 0x00, 0x00, 0xc0, 0x1f, 0x00, 0x00, 0x00, 0x00, 0xc0, 0x07,
   0x00, 0x00, 0x00, 0x00, 0x00, 0x00, 0x00, 0xe0, 0x0f, 0x00, 0x00, 0x00,
   0x00, 0xc0, 0x07, 0x00, 0x00, 0x00, 0x00, 0x00, 0x00, 0x00, 0xf0, 0x07,
   0x00, 0x00, 0x00, 0x00, 0xc0, 0x07, 0x00, 0x00, 0x00, 0x00, 0x00, 0x00,
   0x00, 0xf0, 0x03, 0x00, 0x00, 0x00, 0x00, 0xc0, 0x07, 0x00, 0x00, 0x00,
   0x00, 0x00, 0x00, 0x00, 0xfc, 0x03, 0x00, 0x00, 0x00, 0x00, 0xc0, 0x07,
   0x00, 0x00, 0x00, 0x00, 0x00, 0x00, 0x00, 0xfc, 0x01, 0x00, 0x00, 0x00,
   0x00, 0xc0, 0x07, 0x00, 0x00, 0x00, 0x00, 0x00, 0x00, 0x00, 0xfe, 0x00,
   0x00, 0x00, 0x00, 0x00, 0xc0, 0x07, 0x00, 0x00, 0x00, 0x00, 0x00, 0x00,
   0x00, 0x7e, 0x00, 0x00, 0x00, 0x00, 0x00, 0xc0, 0x07, 0x00, 0x00, 0x00,
   0x00, 0x00, 0x00, 0x00, 0x7f, 0x00, 0x00, 0x00, 0x00, 0x00, 0xc0, 0x07,
   0x00, 0x00, 0x00, 0x00, 0x00, 0x00, 0x00, 0x3f, 0x00, 0x00, 0x00, 0x00,
   0x00, 0xc0, 0x07, 0x00, 0x00, 0x00, 0x00, 0x00, 0x00, 0xc0, 0x1f, 0x00,
   0x00, 0x00, 0x00, 0x00, 0xc0, 0x07, 0x00, 0x00, 0x00, 0x00, 0x00, 0x00,
   0xc0, 0x0f, 0x00, 0x00, 0x00, 0x00, 0x00, 0xc0, 0x07, 0x00, 0x00, 0x00,
   0x00, 0x00, 0x00, 0xc0, 0x0f, 0x00, 0x00, 0x00, 0x00, 0x00, 0x80, 0x0f,
   0x00, 0x00, 0x00, 0x00, 0x00, 0x00, 0xc0, 0x07, 0x00, 0x00, 0x00, 0x00,
   0x00, 0x80, 0x0f, 0x00, 0x00, 0x00, 0x00, 0x00, 0x00, 0xc0, 0x07, 0x00,
   0x00, 0x00, 0x00, 0x00, 0x80, 0x0f, 0x00, 0x00, 0x00, 0x00, 0x00, 0x00,
   0xe0, 0x03, 0x00, 0x00, 0x00, 0x00, 0x00, 0x80, 0x0f, 0x00, 0x00, 0x00,
   0x00, 0x00, 0x00, 0xf0, 0x03, 0x00, 0x00, 0x00, 0x00, 0x00, 0x80, 0x1f,
   0x00, 0x00, 0x00, 0x00, 0x00, 0x00, 0xf0, 0x03, 0x00, 0x00, 0x00, 0x00,
   0x00, 0x80, 0x1f, 0x00, 0x00, 0x00, 0x00, 0x00, 0x00, 0xf8, 0x01, 0x00,
   0x00, 0x00, 0x00, 0x00, 0x80, 0x1f, 0x00, 0x00, 0x00, 0x00, 0x00, 0x00,
   0xf8, 0x01, 0x00, 0x00, 0x00, 0x00, 0x00, 0x00, 0x3f, 0x00, 0x00, 0x00,
   0x00, 0x00, 0x00, 0xfc, 0x00, 0x00, 0x00, 0x00, 0x00, 0x00, 0x00, 0x7f,
   0x00, 0x00, 0x00, 0x00, 0x00, 0x00, 0xfe, 0x00, 0x00, 0x00, 0x00, 0x00,
   0x00, 0x00, 0x7e, 0x00, 0x00, 0x00, 0x00, 0x00, 0x00, 0x7f, 0x00, 0x00,
   0x00, 0x00, 0x00, 0x00, 0x00, 0xfc, 0x00, 0x00, 0x00, 0x00, 0x00, 0x00,
   0x3f, 0x00, 0x00, 0x00, 0x00, 0x00, 0x00, 0x00, 0xfc, 0x00, 0x00, 0x00,
   0x00, 0x00, 0x80, 0x3f, 0x00, 0x00, 0x00, 0x00, 0x00, 0x00, 0x00, 0xf8,
   0x03, 0x00, 0x00, 0x00, 0x00, 0xc0, 0x1f, 0x00, 0x00, 0x00, 0x00, 0x00,
   0x00, 0x00, 0xf0, 0x03, 0x00, 0x00, 0x00, 0x00, 0xe0, 0x0f, 0x00, 0x00,
   0x00, 0x00, 0x00, 0x00, 0x00, 0xf0, 0x07, 0x00, 0x00, 0x00, 0x00, 0xe0,
   0x0f, 0x00, 0x00, 0x00, 0x00, 0x00, 0x00, 0x00, 0xe0, 0x0f, 0x00, 0x00,
   0x00, 0x00, 0xf8, 0x07, 0x00, 0x00, 0x00, 0x00, 0x00, 0x00, 0x00, 0xe0,
   0x1f, 0x00, 0x00, 0x00, 0x00, 0xfc, 0x03, 0x00, 0x00, 0x00, 0x00, 0x00,
   0x00, 0x00, 0xc0, 0x3f, 0x00, 0x00, 0x00, 0x00, 0xfe, 0x01, 0x00, 0x00,
   0x00, 0x00, 0x00, 0x00, 0x00, 0x00, 0xff, 0x00, 0x00, 0x00, 0x80, 0xff,
   0x00, 0x00, 0x00, 0x00, 0x00, 0x00, 0x00, 0x00, 0x00, 0xff, 0x01, 0x00,
   0x00, 0xc0, 0x7f, 0x00, 0x00, 0x00, 0x00, 0x00, 0x00, 0x00, 0x00, 0x00,
   0xfe, 0x07, 0x00, 0x00, 0xf0, 0x1f, 0x00, 0x00, 0x00, 0x00, 0x00, 0x00,
   0x00, 0x00, 0x00, 0xf8, 0x0f, 0x00, 0x00, 0xfe, 0x0f, 0x00, 0x00, 0x00,
   0x00, 0x00, 0x00, 0x00, 0x00, 0x00, 0xf8, 0x3f, 0x00, 0x00, 0xff, 0x07,
   0x00, 0x00, 0x00, 0x00, 0x00, 0x00, 0x00, 0x00, 0x00, 0xe0, 0xff, 0x07,
   0xfc, 0xff, 0x03, 0x00, 0x00, 0x00, 0x00, 0x00, 0x00, 0x00, 0x00, 0x00,
   0x80, 0xff, 0xff, 0xff, 0x7f, 0x00, 0x00, 0x00, 0x00, 0x00, 0x00, 0x00,
   0x00, 0x00, 0x00, 0x00, 0xfe, 0xff, 0xff, 0x3f, 0x00, 0x00, 0x00, 0x00,
   0x00, 0x00, 0x00, 0x00, 0x00, 0x00, 0x00, 0xfc, 0xff, 0xff, 0x0f, 0x00,
   0x00, 0x00, 0x00, 0x00, 0x00, 0x00, 0x00, 0x00, 0x00, 0x00, 0x80, 0xff,
   0x3f, 0x00, 0x00, 0x00, 0x00, 0x00, 0x00, 0x00, 0x00, 0x00, 0x00, 0x00,
   0x00, 0x00, 0xf8, 0x03, 0x00, 0x00, 0x00, 0x00, 0x00, 0x00, 0x00, 0x00 };
