#define img_wifi_16_width 16
#define img_wifi_16_height 12
const unsigned char img_wifi_16_bits[] = {
   0xe0, 0x07, 0xf8, 0x1f, 0x1e, 0x78, 0xc7, 0xe3, 0xf3, 0xcf, 0x38, 0x1c,
   0xcc, 0x33, 0xe0, 0x07, 0x70, 0x0e, 0x80, 0x01, 0x80, 0x01, 0x80, 0x01 };
