#define img_database_16_width 13
#define img_database_16_height 16
const unsigned char img_database_16_bits[] = {
   0xf8, 0x03, 0xfe, 0x0f, 0xff, 0x1f, 0xff, 0x1f, 0xfe, 0x0f, 0xfd, 0x17,
   0x07, 0x1c, 0xfe, 0x0f, 0xfd, 0x17, 0x07, 0x1c, 0xff, 0x1f, 0xfe, 0x0f,
   0xf3, 0x19, 0xff, 0x1f, 0xfe, 0x0f, 0xf8, 0x03 };
