#define img_home_16_width 16
#define img_home_16_height 15
const unsigned char img_home_16_bits[] = {
   0x80, 0x01, 0xc0, 0x03, 0xe0, 0x07, 0x30, 0x0e, 0x18, 0x18, 0x0c, 0x30,
   0x0f, 0xf0, 0x0f, 0xf0, 0xcc, 0x33, 0xcc, 0x33, 0xcc, 0x33, 0xcc, 0x33,
   0xcc, 0x33, 0xcc, 0x33, 0xf8, 0x1f };
