#define img_back_16_width 18
#define img_back_16_height 18
const unsigned char img_back_16_bits[] = {
   0x00, 0x00, 0x00, 0x00, 0x00, 0x00, 0x20, 0x00, 0x00, 0x30, 0x00, 0x00,
   0x38, 0x00, 0x00, 0xfe, 0xff, 0x03, 0xff, 0xff, 0x03, 0xfe, 0xff, 0x03,
   0x3c, 0x80, 0x03, 0x38, 0x80, 0x03, 0x20, 0x80, 0x03, 0x00, 0x80, 0x03,
   0x00, 0x80, 0x03, 0x00, 0xff, 0x03, 0x80, 0xff, 0x03, 0x80, 0xff, 0x03,
   0x00, 0x00, 0x00, 0x00, 0x00, 0x00 };
