#define img_database_24_width 20
#define img_database_24_height 24
static unsigned char img_database_24_bits[] = {
   0xc0, 0x3f, 0x00, 0xf8, 0xff, 0x01, 0xfe, 0xff, 0x07, 0xff, 0xff, 0x0f,
   0xff, 0xff, 0x0f, 0xff, 0xff, 0x0f, 0xfe, 0xff, 0x07, 0xfc, 0xff, 0x03,
   0xf3, 0xff, 0x0c, 0x0f, 0x0f, 0x0f, 0xff, 0xff, 0x0f, 0xfe, 0xff, 0x07,
   0xf9, 0xff, 0x09, 0xe3, 0x7f, 0x0c, 0x1f, 0x80, 0x0f, 0xff, 0xff, 0x0f,
   0xfe, 0xff, 0x07, 0xf9, 0xff, 0x09, 0xe3, 0x7f, 0x0c, 0x1f, 0x80, 0x0f,
   0xff, 0xff, 0x0f, 0xfe, 0xff, 0x07, 0xf8, 0xff, 0x01, 0xc0, 0x3f, 0x00 };
