#define img_activity_walking_width 64
#define img_activity_walking_height 64
const uint8_t img_activity_walking_bits[] PROGMEM = {
   0x00, 0x00, 0x00, 0xe0, 0x00, 0x00, 0x00, 0x00, 0x00, 0x00, 0x00, 0xf0,
   0x07, 0x00, 0x00, 0x00, 0x00, 0x00, 0x00, 0xfc, 0x07, 0x00, 0x00, 0x00,
   0x00, 0x00, 0x00, 0xfc, 0x0f, 0x00, 0x00, 0x00, 0x00, 0x00, 0x00, 0xfc,
   0x1f, 0x00, 0x00, 0x00, 0x00, 0x00, 0x00, 0xfe, 0x1f, 0x00, 0x00, 0x00,
   0x00, 0x00, 0x00, 0xfe, 0x1f, 0x00, 0x00, 0x00, 0x00, 0x00, 0x00, 0xfc,
   0x0f, 0x00, 0x00, 0x00, 0x00, 0x00, 0x00, 0xfc, 0x0f, 0x00, 0x00, 0x00,
   0x00, 0x00, 0x00, 0xf8, 0x0f, 0x00, 0x00, 0x00, 0x00, 0x00, 0x00, 0xf8,
   0x03, 0x00, 0x00, 0x00, 0x00, 0x00, 0x00, 0xc0, 0x01, 0x00, 0x00, 0x00,
   0x00, 0x00, 0x00, 0x00, 0x00, 0x00, 0x00, 0x00, 0x00, 0x00, 0x00, 0x00,
   0x00, 0x00, 0x00, 0x00, 0x00, 0x00, 0x00, 0xe0, 0x00, 0x00, 0x00, 0x00,
   0x00, 0x00, 0x00, 0xfc, 0x03, 0x00, 0x00, 0x00, 0x00, 0x00, 0xe0, 0xff,
   0x07, 0x00, 0x00, 0x00, 0x00, 0x00, 0xfc, 0xff, 0x0f, 0x00, 0x00, 0x00,
   0x00, 0x00, 0xff, 0xff, 0x3f, 0x00, 0x06, 0x00, 0x00, 0x00, 0xff, 0xff,
   0x7f, 0x80, 0x0f, 0x00, 0x00, 0x80, 0xff, 0xff, 0xff, 0xe1, 0x1f, 0x00,
   0x00, 0x80, 0xff, 0xf8, 0xff, 0xfb, 0x0f, 0x00, 0x00, 0xc0, 0x0f, 0xf8,
   0xff, 0xff, 0x0f, 0x00, 0x00, 0xc0, 0x0f, 0xf8, 0xff, 0xff, 0x07, 0x00,
   0x00, 0xe0, 0x07, 0xf8, 0xe7, 0xff, 0x01, 0x00, 0x00, 0xe0, 0x07, 0xf8,
   0xc7, 0x7f, 0x00, 0x00, 0x00, 0xf0, 0x03, 0xf8, 0x07, 0x1f, 0x00, 0x00,
   0x00, 0xf0, 0x03, 0xf8, 0x07, 0x06, 0x00, 0x00, 0x00, 0xf8, 0x01, 0xf8,
   0x07, 0x00, 0x00, 0x00, 0x00, 0xf0, 0x01, 0xf8, 0x07, 0x00, 0x00, 0x00,
   0x00, 0xf0, 0x00, 0xf8, 0x07, 0x00, 0x00, 0x00, 0x00, 0x60, 0x00, 0xf8,
   0x07, 0x00, 0x00, 0x00, 0x00, 0x00, 0x00, 0xf8, 0x07, 0x00, 0x00, 0x00,
   0x00, 0x00, 0x00, 0xf8, 0x07, 0x00, 0x00, 0x00, 0x00, 0x00, 0x00, 0xf8,
   0x07, 0x00, 0x00, 0x00, 0x00, 0x00, 0x00, 0xf8, 0x07, 0x00, 0x00, 0x00,
   0x00, 0x00, 0x00, 0xf8, 0x07, 0x00, 0x00, 0x00, 0x00, 0x00, 0x00, 0xf8,
   0x07, 0x00, 0x00, 0x00, 0x00, 0x00, 0x00, 0xf8, 0x07, 0x00, 0x00, 0x00,
   0x00, 0x00, 0x00, 0xfc, 0x07, 0x00, 0x00, 0x00, 0x00, 0x00, 0x00, 0xfc,
   0x07, 0x00, 0x00, 0x00, 0x00, 0x00, 0x00, 0xfe, 0x0f, 0x00, 0x00, 0x00,
   0x00, 0x00, 0x00, 0xfe, 0x1f, 0x00, 0x00, 0x00, 0x00, 0x00, 0x00, 0xfe,
   0x3f, 0x00, 0x00, 0x00, 0x00, 0x00, 0x00, 0xbf, 0x7f, 0x00, 0x00, 0x00,
   0x00, 0x00, 0x00, 0x3f, 0xff, 0x00, 0x00, 0x00, 0x00, 0x00, 0x00, 0x1f,
   0xfe, 0x00, 0x00, 0x00, 0x00, 0x00, 0x80, 0x1f, 0xfc, 0x03, 0x00, 0x00,
   0x00, 0x00, 0x80, 0x1f, 0xf8, 0x03, 0x00, 0x00, 0x00, 0x00, 0xc0, 0x0f,
   0xf0, 0x07, 0x00, 0x00, 0x00, 0x00, 0xc0, 0x0f, 0xe0, 0x07, 0x00, 0x00,
   0x00, 0x00, 0xc0, 0x0f, 0xc0, 0x07, 0x00, 0x00, 0x00, 0x00, 0xe0, 0x07,
   0xe0, 0x07, 0x00, 0x00, 0x00, 0x00, 0xf0, 0x07, 0xc0, 0x07, 0x00, 0x00,
   0x00, 0x00, 0xf0, 0x03, 0xc0, 0x0f, 0x00, 0x00, 0x00, 0x00, 0xf8, 0x03,
   0xc0, 0x0f, 0x00, 0x00, 0x00, 0x00, 0xfc, 0x01, 0xc0, 0x0f, 0x00, 0x00,
   0x00, 0x00, 0xfe, 0x00, 0x80, 0x0f, 0x00, 0x00, 0x00, 0x00, 0x7e, 0x00,
   0x80, 0x0f, 0x00, 0x00, 0x00, 0x00, 0x7f, 0x00, 0x80, 0x0f, 0x00, 0x00,
   0x00, 0x80, 0x3f, 0x00, 0x80, 0x1f, 0x00, 0x00, 0x00, 0x00, 0x1f, 0x00,
   0x80, 0x1f, 0x00, 0x00, 0x00, 0x00, 0x0f, 0x00, 0x00, 0x0f, 0x00, 0x00,
   0x00, 0x00, 0x0e, 0x00, 0x00, 0x06, 0x00, 0x00 };
