#define img_wifi_24_width 24
#define img_wifi_24_height 24
static unsigned char img_wifi_24_bits[] PROGMEM  = {
   0x00, 0x00, 0x00, 0x00, 0x00, 0x00, 0x00, 0x00, 0x00, 0x00, 0x5a, 0x00,
   0xc0, 0xff, 0x03, 0xf0, 0xff, 0x0f, 0x78, 0x00, 0x1e, 0x1e, 0x00, 0x78,
   0x0e, 0x7f, 0x70, 0x87, 0xff, 0xe3, 0xe0, 0xc3, 0x07, 0x70, 0x00, 0x0e,
   0x30, 0x08, 0x0c, 0x00, 0xfe, 0x00, 0x80, 0xff, 0x01, 0x80, 0xc3, 0x01,
   0x00, 0x01, 0x01, 0x00, 0x18, 0x00, 0x00, 0x3c, 0x00, 0x00, 0x3c, 0x00,
   0x00, 0x10, 0x00, 0x00, 0x00, 0x00, 0x00, 0x00, 0x00, 0x00, 0x00, 0x00 };
