#define img_usb_24_width 24
#define img_usb_24_height 24
static unsigned char img_usb_24_bits[] = PROGMEM {
   0x00, 0x08, 0x00, 0x00, 0x18, 0x00, 0x00, 0x1c, 0x00, 0x00, 0x3e, 0x00,
   0x00, 0x7e, 0x00, 0x00, 0x08, 0x00, 0x00, 0x88, 0x00, 0x00, 0xc8, 0x01,
   0x80, 0xcb, 0x01, 0x80, 0x8b, 0x00, 0x80, 0x8b, 0x00, 0x00, 0x89, 0x00,
   0x00, 0x49, 0x00, 0x00, 0x39, 0x00, 0x00, 0x1b, 0x00, 0x00, 0x0e, 0x00,
   0x00, 0x0c, 0x00, 0x00, 0x08, 0x00, 0x00, 0x08, 0x00, 0x00, 0x1c, 0x00,
   0x00, 0x3e, 0x00, 0x00, 0x3e, 0x00, 0x00, 0x3e, 0x00, 0x00, 0x1c, 0x00 };
