#define img_folder_16_width 16
#define img_folder_16_height 14
const unsigned char img_folder_16_bits[] = {
   0x1f, 0x00, 0x3f, 0x00, 0xff, 0x7f, 0x01, 0xc0, 0x01, 0x80, 0x01, 0x80,
   0x01, 0x80, 0x01, 0x80, 0x01, 0x80, 0x01, 0x80, 0x01, 0x80, 0x01, 0x80,
   0x01, 0x80, 0xff, 0x7f };
