#define img_bluetooth_16_width 15
#define img_bluetooth_16_height 16
const unsigned char img_bluetooth_16_bits[] = {
   0x80, 0x00, 0x80, 0x01, 0x80, 0x03, 0x8c, 0x06, 0x98, 0x0c, 0xb0, 0x06,
   0xe0, 0x03, 0xc0, 0x01, 0xc0, 0x01, 0xe0, 0x03, 0xb0, 0x06, 0x98, 0x0c,
   0x8c, 0x06, 0x80, 0x03, 0x80, 0x01, 0x80, 0x00 };
