#define img_file_log_16_width 12
#define img_file_log_16_height 16
const unsigned char img_file_log_16_bits[] = {
   0xff, 0x01, 0x01, 0x03, 0x01, 0x07, 0x01, 0x0f, 0x01, 0x08, 0x01, 0x08,
   0x01, 0x08, 0x01, 0x08, 0x01, 0x08, 0x01, 0x08, 0x01, 0x08, 0xd1, 0x08,
   0xd1, 0x08, 0x29, 0x09, 0x01, 0x08, 0xff, 0x0f };
