#define img_search_48_width 48
#define img_search_48_height 48
static unsigned char img_search_48_bits[] = PROGMEM {
   0x00, 0x00, 0x15, 0x00, 0x00, 0x00, 0x00, 0xf0, 0xff, 0x00, 0x00, 0x00,
   0x00, 0x3c, 0xc0, 0x07, 0x00, 0x00, 0x00, 0x07, 0x00, 0x0e, 0x00, 0x00,
   0x80, 0xe1, 0x7f, 0x18, 0x00, 0x00, 0xc0, 0xf9, 0xe0, 0x01, 0x00, 0x00,
   0x60, 0x1c, 0x00, 0x07, 0x00, 0x00, 0x30, 0x07, 0x00, 0x0c, 0x00, 0x00,
   0x98, 0x01, 0x00, 0x18, 0x01, 0x00, 0x98, 0x01, 0x0f, 0x30, 0x03, 0x00,
   0xcc, 0x80, 0x1b, 0x60, 0x02, 0x00, 0x64, 0x80, 0x30, 0x40, 0x06, 0x00,
   0x66, 0x80, 0x20, 0xc0, 0x04, 0x00, 0x26, 0x80, 0x30, 0xc0, 0x04, 0x00,
   0x32, 0x80, 0x30, 0x80, 0x0c, 0x00, 0x12, 0x80, 0x11, 0x80, 0x0d, 0x00,
   0x13, 0x00, 0x1b, 0x80, 0x09, 0x00, 0x13, 0x00, 0x19, 0x80, 0x09, 0x00,
   0x12, 0x80, 0x19, 0x00, 0x0d, 0x00, 0x13, 0xc0, 0x7b, 0x80, 0x09, 0x00,
   0x12, 0x70, 0xef, 0x81, 0x0d, 0x00, 0x32, 0x18, 0x04, 0x81, 0x0c, 0x00,
   0x36, 0x08, 0x00, 0x83, 0x0c, 0x00, 0x26, 0x08, 0x00, 0xc3, 0x04, 0x00,
   0x64, 0x48, 0x60, 0x43, 0x06, 0x00, 0x4c, 0x58, 0x60, 0x63, 0x06, 0x00,
   0xcc, 0x48, 0x60, 0x33, 0x03, 0x00, 0x18, 0x48, 0x60, 0x32, 0x03, 0x00,
   0x10, 0x40, 0x60, 0x9c, 0x01, 0x00, 0x30, 0x4c, 0x00, 0xc6, 0x00, 0x00,
   0xe0, 0x3c, 0xc0, 0xe3, 0x00, 0x00, 0xc0, 0xf1, 0xfb, 0xf1, 0x01, 0x00,
   0x00, 0x83, 0x1f, 0x1c, 0x31, 0x00, 0x00, 0x1e, 0x00, 0x0f, 0x78, 0x00,
   0x00, 0xf8, 0xe8, 0x03, 0xcc, 0x00, 0x00, 0xc0, 0x7f, 0x00, 0xce, 0x01,
   0x00, 0x00, 0x00, 0x00, 0xe3, 0x03, 0x00, 0x00, 0x00, 0x00, 0x03, 0x06,
   0x00, 0x00, 0x00, 0x00, 0x06, 0x0c, 0x00, 0x00, 0x00, 0x00, 0x0c, 0x18,
   0x00, 0x00, 0x00, 0x00, 0x18, 0x30, 0x00, 0x00, 0x00, 0x00, 0x30, 0x60,
   0x00, 0x00, 0x00, 0x00, 0x60, 0x40, 0x00, 0x00, 0x00, 0x00, 0xc0, 0xc0,
   0x00, 0x00, 0x00, 0x00, 0x80, 0x61, 0x00, 0x00, 0x00, 0x00, 0x00, 0x63,
   0x00, 0x00, 0x00, 0x00, 0x00, 0x3e, 0x00, 0x00, 0x00, 0x00, 0x00, 0x08 };
