#define img_steps_16_width 12
#define img_steps_16_height 16
const unsigned char img_steps_16_bits[] = {
   0xe0, 0x00, 0xe0, 0x00, 0xe0, 0x00, 0x60, 0x00, 0x7c, 0x00, 0xfe, 0x00,
   0xf2, 0x01, 0xf3, 0x0f, 0x7b, 0x0c, 0x78, 0x00, 0xf8, 0x00, 0xd8, 0x00,
   0x9c, 0x00, 0x8e, 0x00, 0x86, 0x01, 0x82, 0x00 };
