#define img_bluetooth_peer_24_width 22
#define img_bluetooth_peer_24_height 24
static unsigned char img_bluetooth_peer_24_bits[] = PROGMEM  {
   0x00, 0x04, 0x00, 0x00, 0x1c, 0x00, 0x00, 0x3c, 0x00, 0x00, 0x7c, 0x00,
   0x18, 0xfc, 0x00, 0x38, 0xec, 0x01, 0x70, 0xcc, 0x01, 0xe0, 0xcc, 0x01,
   0xc0, 0xed, 0x00, 0x80, 0x7f, 0x00, 0x0c, 0x3f, 0x0c, 0x1f, 0x1e, 0x1e,
   0x1e, 0x1e, 0x3e, 0x04, 0x3f, 0x08, 0x80, 0x7f, 0x08, 0xc0, 0xed, 0x00,
   0xe0, 0xcc, 0x01, 0x70, 0xcc, 0x01, 0x38, 0xec, 0x00, 0x18, 0x7c, 0x00,
   0x00, 0x3c, 0x00, 0x00, 0x1c, 0x00, 0x00, 0x0c, 0x00, 0x00, 0x04, 0x00 };
