#define lunokiot_logo_64_width 75
#define lunokiot_logo_64_height 64
static unsigned char lunokiot_logo_64_bits[] = {
   0x00, 0x00, 0x00, 0x00, 0x00, 0x00, 0x00, 0xfe, 0x01, 0x00, 0x00, 0x00,
   0x00, 0x00, 0x00, 0x00, 0xc0, 0xff, 0x07, 0x00, 0x00, 0x00, 0x00, 0x00,
   0x00, 0x00, 0xe0, 0x9f, 0x1f, 0x00, 0x00, 0x00, 0x00, 0x00, 0x00, 0x00,
   0xfb, 0x1f, 0x3e, 0x00, 0x00, 0x00, 0x00, 0x00, 0x00, 0xf0, 0xfd, 0xff,
   0x7e, 0x00, 0x00, 0x00, 0x00, 0x00, 0x00, 0x3f, 0xfc, 0xff, 0xf3, 0x00,
   0x00, 0x00, 0x00, 0x00, 0xf0, 0x03, 0xfe, 0xff, 0xff, 0x01, 0x00, 0x00,
   0x00, 0x00, 0x3f, 0x00, 0xff, 0xff, 0xff, 0x01, 0x00, 0x00, 0x00, 0xf0,
   0x01, 0x00, 0xff, 0xff, 0xff, 0x03, 0x00, 0x00, 0x00, 0x1f, 0x00, 0x80,
   0xff, 0xff, 0xff, 0x03, 0x00, 0x00, 0xf0, 0x01, 0x00, 0x80, 0xff, 0xff,
   0xff, 0x07, 0x00, 0x00, 0x0f, 0x00, 0x00, 0x80, 0xff, 0xff, 0xff, 0x07,
   0x00, 0xf0, 0x00, 0x00, 0x00, 0x80, 0xff, 0xff, 0xff, 0x07, 0x00, 0x07,
   0x00, 0x00, 0x00, 0x80, 0xff, 0xff, 0xff, 0x07, 0x78, 0x00, 0x00, 0x00,
   0x00, 0x80, 0xff, 0xff, 0xff, 0x07, 0x07, 0x00, 0x00, 0x00, 0x00, 0x80,
   0xff, 0xff, 0xff, 0x07, 0x00, 0x00, 0x00, 0x00, 0x00, 0x80, 0xff, 0xff,
   0xff, 0x07, 0x00, 0x00, 0x00, 0x00, 0x00, 0x80, 0xff, 0xff, 0xff, 0x07,
   0x00, 0x00, 0x00, 0x00, 0x00, 0xe0, 0xff, 0xff, 0xff, 0x03, 0x00, 0x00,
   0x00, 0x00, 0x00, 0x3c, 0xff, 0xff, 0xff, 0x03, 0x00, 0x00, 0x00, 0x00,
   0x00, 0x0f, 0xff, 0xff, 0xff, 0x03, 0x00, 0x00, 0x00, 0x00, 0xc0, 0xe1,
   0xfe, 0xff, 0xff, 0x01, 0x00, 0x00, 0x00, 0x00, 0x70, 0x38, 0xfe, 0xff,
   0xff, 0x00, 0x00, 0x00, 0x00, 0x00, 0x1c, 0x0c, 0xfc, 0xff, 0xff, 0x00,
   0x00, 0x00, 0x00, 0x80, 0x03, 0x03, 0xf8, 0xff, 0x7f, 0x00, 0x00, 0x00,
   0x00, 0xe0, 0xc0, 0x01, 0xf0, 0xff, 0x1f, 0x00, 0x00, 0x00, 0x00, 0x38,
   0x70, 0x00, 0xc0, 0xff, 0x0f, 0x00, 0x00, 0x00, 0x00, 0x0e, 0x1c, 0x00,
   0x00, 0xff, 0x03, 0x00, 0x00, 0x00, 0xc0, 0x01, 0x07, 0x00, 0x00, 0x38,
   0x00, 0x00, 0x00, 0x00, 0x70, 0x80, 0x01, 0x00, 0x00, 0x1c, 0x00, 0x00,
   0x00, 0x00, 0x1c, 0x60, 0x00, 0x00, 0x00, 0x06, 0x00, 0x00, 0x00, 0x00,
   0x03, 0x18, 0x00, 0x00, 0x80, 0x03, 0x00, 0x00, 0x00, 0xc0, 0x00, 0x06,
   0x00, 0x00, 0xc0, 0x00, 0x00, 0x00, 0x00, 0x38, 0x80, 0x01, 0x00, 0x00,
   0x60, 0x00, 0x00, 0x00, 0x00, 0x06, 0x60, 0x00, 0x00, 0x00, 0x38, 0x00,
   0x00, 0x00, 0x80, 0x01, 0x30, 0x00, 0x00, 0x00, 0x0c, 0x00, 0x00, 0x00,
   0x60, 0x00, 0x0c, 0x00, 0x00, 0x00, 0x06, 0x00, 0x00, 0x00, 0x0c, 0x00,
   0x03, 0x00, 0x00, 0x80, 0x03, 0x00, 0x00, 0x00, 0x02, 0xc0, 0x00, 0x00,
   0x00, 0xc0, 0x00, 0x00, 0x00, 0x00, 0x00, 0x30, 0x00, 0x00, 0x00, 0x60,
   0x00, 0x00, 0x00, 0x00, 0x00, 0x0c, 0x00, 0x00, 0x00, 0x18, 0x00, 0x00,
   0x00, 0x00, 0x00, 0x00, 0x00, 0x00, 0x00, 0x0c, 0x00, 0x00, 0x00, 0x00,
   0x00, 0x00, 0x00, 0x00, 0x00, 0x06, 0x00, 0x00, 0x00, 0x00, 0x00, 0x00,
   0x00, 0x00, 0x80, 0x01, 0x00, 0x00, 0x00, 0x00, 0x00, 0x00, 0x00, 0x00,
   0xc0, 0x00, 0x00, 0x00, 0x00, 0x00, 0x00, 0x00, 0x00, 0x00, 0x60, 0x00,
   0x00, 0x00, 0x00, 0x00, 0x00, 0x00, 0x00, 0x00, 0x18, 0x00, 0x00, 0x00,
   0x00, 0x00, 0x00, 0x00, 0x00, 0x00, 0x0c, 0x00, 0x00, 0x00, 0x00, 0x00,
   0x00, 0x00, 0x00, 0x00, 0x02, 0x00, 0x00, 0x00, 0x00, 0x00, 0x00, 0x00,
   0x00, 0x80, 0x01, 0x00, 0x00, 0x00, 0x00, 0x00, 0x00, 0x00, 0x00, 0xc0,
   0x00, 0x00, 0x00, 0x00, 0x00, 0x00, 0x00, 0x00, 0x00, 0x20, 0x00, 0x00,
   0x00, 0x00, 0x00, 0x00, 0x00, 0x00, 0x00, 0x18, 0x00, 0x00, 0x00, 0x00,
   0x00, 0x00, 0x00, 0x00, 0x00, 0x0c, 0x00, 0x00, 0x00, 0x00, 0x00, 0x00,
   0x00, 0x00, 0x00, 0x02, 0x00, 0x00, 0x00, 0x00, 0x00, 0x00, 0x00, 0x00,
   0x80, 0x01, 0x00, 0x00, 0x00, 0x00, 0x00, 0x00, 0x00, 0x00, 0x40, 0x00,
   0x00, 0x00, 0x00, 0x00, 0x00, 0x00, 0x00, 0x00, 0x20, 0x00, 0x00, 0x00,
   0x00, 0x00, 0x00, 0x00, 0x00, 0x00, 0x18, 0x00, 0x00, 0x00, 0x00, 0x00,
   0x00, 0x00, 0x00, 0x00, 0x04, 0x00, 0x00, 0x00, 0x00, 0x00, 0x00, 0x00,
   0x00, 0x00, 0x02, 0x00, 0x00, 0x00, 0x00, 0x00, 0x00, 0x00, 0x00, 0x80,
   0x01, 0x00, 0x00, 0x00, 0x00, 0x00, 0x00, 0x00, 0x00, 0x40, 0x00, 0x00,
   0x00, 0x00, 0x00, 0x00, 0x00, 0x00, 0x00, 0x20, 0x00, 0x00, 0x00, 0x00,
   0x00, 0x00, 0x00, 0x00 };
